<?xml version="1.0" encoding="UTF-8"?><svg id="Layer_1" xmlns="http://www.w3.org/2000/svg" viewBox="0 0 353.78 282"><defs><style>.cls-1{fill:#000;}.cls-1,.cls-2{stroke-width:0px;}.cls-2{fill:#f2f2f2;}</style></defs><ellipse class="cls-2" cx="176.89" cy="141" rx="176.89" ry="141"/><path class="cls-1" d="M155.82,226.21c-7.47.14-12.39-6.4-10.27-14.04,4.81-17.31,9.8-34.58,14.73-51.86,8.91-31.2,17.83-62.4,26.75-93.59.37-1.28.67-2.58,1.11-3.84,2.04-5.78,7.49-8.82,12.98-7.27,5.87,1.65,9.17,7.09,7.51,13.24-3.04,11.24-6.38,22.4-9.58,33.6-10.78,37.76-21.55,75.53-32.34,113.29-2.07,7.24-5.37,10.38-10.9,10.48Z"/><path class="cls-1" d="M85.44,141.11c7.37,7.35,14.54,14.49,21.71,21.65,4.59,4.59,9.33,9.06,13.7,13.85,4.15,4.54,3.77,10.78-.45,14.82-4.01,3.83-10.07,3.92-14.54.2-.64-.53-1.21-1.15-1.8-1.74-13.31-13.31-26.64-26.6-39.93-39.93-6.29-6.31-6.26-11.76.06-18.1,13.29-13.33,26.6-26.64,39.94-39.92,5.39-5.37,11.76-5.87,16.33-1.42,4.8,4.67,4.33,10.93-1.37,16.66-9.99,10.04-20.02,20.02-30.03,30.05-1.15,1.15-2.22,2.38-3.63,3.89Z"/><path class="cls-1" d="M268.99,141.32c-11.46-11.44-22.17-22.13-32.87-32.82-6.83-6.83-7.8-12.67-2.94-17.71,4.92-5.11,11.26-4.19,18.11,2.65,12.73,12.72,25.47,25.42,38.17,38.16,6.61,6.63,6.68,11.99.22,18.48-13.29,13.33-26.6,26.65-39.98,39.89-1.61,1.59-3.6,3.08-5.69,3.86-4.56,1.69-9.6-.35-12.17-4.44-2.79-4.44-2.21-9.39,1.97-13.62,10.06-10.2,20.23-20.29,30.39-30.4,1.3-1.29,2.8-2.37,4.79-4.04Z"/></svg>